<svg xmlns="http://www.w3.org/2000/svg" width="548" height="230" fill="none"><circle cx="115" cy="115" r="103" stroke="#112D4E" stroke-width="24"/><path fill="#112D4E" d="M123.938 132h-13.407V84c0-.938-.187-1.813-.562-2.625a6.219 6.219 0 0 0-1.453-2.11 6.214 6.214 0 0 0-2.11-1.453 6.664 6.664 0 0 0-2.625-.515c-.937 0-1.812.172-2.625.516A6.734 6.734 0 0 0 99 79.266 6.666 6.666 0 0 0 97.078 84v48H83.625V84c0-.938-.172-1.813-.516-2.625a6.216 6.216 0 0 0-1.453-2.11 6.213 6.213 0 0 0-2.11-1.453 6.668 6.668 0 0 0-2.624-.515c-.938 0-1.813.172-2.625.516a6.73 6.73 0 0 0-2.156 1.453A6.666 6.666 0 0 0 70.219 84v48H56.766V84c0-2.781.515-5.39 1.547-7.828 1.062-2.469 2.5-4.61 4.312-6.422a20.025 20.025 0 0 1 6.422-4.313c2.469-1.062 5.094-1.593 7.875-1.593 2.5 0 4.906.453 7.219 1.36a19.247 19.247 0 0 1 6.234 3.843 19.375 19.375 0 0 1 6.188-3.844 19.611 19.611 0 0 1 7.218-1.36c2.781 0 5.391.532 7.828 1.594 2.469 1.032 4.61 2.47 6.422 4.313 1.844 1.813 3.281 3.953 4.313 6.422 1.062 2.437 1.594 5.047 1.594 7.828v48ZM137.459 107.54v26.906h13.453c1.844 0 3.578-.344 5.203-1.031a13.975 13.975 0 0 0 4.266-2.906 13.318 13.318 0 0 0 2.859-4.266 13.04 13.04 0 0 0 1.078-5.25c0-1.844-.359-3.578-1.078-5.203a13.19 13.19 0 0 0-2.859-4.313 13.318 13.318 0 0 0-4.266-2.859c-1.625-.719-3.359-1.078-5.203-1.078h-13.453Zm0 53.766h-13.453v-67.22h26.906c2.469 0 4.844.329 7.125.985a25.143 25.143 0 0 1 6.375 2.719c2 1.156 3.812 2.562 5.437 4.219a25.348 25.348 0 0 1 4.219 5.437c1.188 2 2.094 4.141 2.719 6.422a25.65 25.65 0 0 1 .984 7.125c0 2.313-.297 4.563-.89 6.75a26.23 26.23 0 0 1-2.485 6.234 25.637 25.637 0 0 1-3.937 5.438 26.826 26.826 0 0 1-5.25 4.312l7.453 17.579h-14.297l-5.859-13.547-15.047.093v13.454ZM314.938 103h-13.407V55c0-.938-.187-1.813-.562-2.625a6.219 6.219 0 0 0-1.453-2.11 6.214 6.214 0 0 0-2.11-1.453 6.664 6.664 0 0 0-2.625-.515c-.937 0-1.812.172-2.625.516A6.734 6.734 0 0 0 290 50.266 6.663 6.663 0 0 0 288.078 55v48h-13.453V55c0-.938-.172-1.813-.516-2.625a6.205 6.205 0 0 0-1.453-2.11 6.22 6.22 0 0 0-2.109-1.453 6.671 6.671 0 0 0-2.625-.515c-.938 0-1.813.172-2.625.516a6.723 6.723 0 0 0-2.156 1.453 6.568 6.568 0 0 0-1.407 2.109 6.68 6.68 0 0 0-.515 2.625v48h-13.453V55c0-2.781.515-5.39 1.546-7.828 1.063-2.469 2.5-4.61 4.313-6.422a20.022 20.022 0 0 1 6.422-4.313c2.469-1.062 5.094-1.593 7.875-1.593 2.5 0 4.906.453 7.219 1.36a19.252 19.252 0 0 1 6.234 3.843 19.378 19.378 0 0 1 6.187-3.844 19.616 19.616 0 0 1 7.219-1.36c2.781 0 5.391.532 7.828 1.594 2.469 1.032 4.61 2.47 6.422 4.313 1.844 1.813 3.281 3.953 4.313 6.422 1.062 2.437 1.594 5.047 1.594 7.828v48Zm58.64-25.547c0 3.75-.672 7.25-2.016 10.5-1.343 3.219-3.171 6.016-5.484 8.39-2.312 2.344-5.031 4.204-8.156 5.579-3.094 1.344-6.422 2.016-9.984 2.016-3.532 0-6.86-.672-9.985-2.016-3.094-1.375-5.812-3.234-8.156-5.578-2.313-2.375-4.141-5.172-5.485-8.39-1.343-3.25-2.015-6.75-2.015-10.5 0-3.813.672-7.345 2.015-10.595 1.344-3.25 3.172-6.046 5.485-8.39a25.773 25.773 0 0 1 8.156-5.578c3.125-1.344 6.453-2.016 9.985-2.016 3.562 0 6.89.64 9.984 1.922 3.125 1.25 5.844 3.047 8.156 5.39 2.313 2.313 4.141 5.11 5.484 8.391 1.344 3.25 2.016 6.875 2.016 10.875Zm-12.89 0c0-2.062-.344-3.922-1.032-5.578-.656-1.688-1.562-3.125-2.718-4.313a11.39 11.39 0 0 0-4.079-2.765c-1.531-.656-3.171-.984-4.921-.984a12.7 12.7 0 0 0-4.969.984 11.483 11.483 0 0 0-4.031 2.766c-1.126 1.187-2.016 2.624-2.672 4.312-.657 1.656-.985 3.516-.985 5.578 0 1.938.328 3.734.985 5.39.656 1.657 1.546 3.094 2.672 4.313a13.289 13.289 0 0 0 4.031 2.906 12.201 12.201 0 0 0 4.969 1.032c1.75 0 3.39-.328 4.921-.985a12.254 12.254 0 0 0 4.079-2.765c1.156-1.188 2.062-2.625 2.718-4.313.688-1.687 1.032-3.547 1.032-5.578Zm70.218 0c0 3.938-.672 7.531-2.015 10.781-1.344 3.25-3.172 6.047-5.485 8.391-2.312 2.313-5.031 4.109-8.156 5.391-3.094 1.281-6.422 1.922-9.984 1.922-3.532 0-6.86-.657-9.985-1.969a25.528 25.528 0 0 1-8.156-5.485c-2.313-2.343-4.141-5.125-5.484-8.343-1.344-3.25-2.016-6.813-2.016-10.688V32.828h12.844v23.438a11.843 11.843 0 0 1 2.484-2.344c1-.688 2.063-1.25 3.188-1.688a20.046 20.046 0 0 1 3.562-.984 17.71 17.71 0 0 1 3.563-.375c3.562 0 6.89.672 9.984 2.016 3.125 1.312 5.844 3.156 8.156 5.53 2.313 2.376 4.141 5.188 5.485 8.438 1.343 3.22 2.015 6.75 2.015 10.594Zm-12.89 0c0-1.937-.344-3.734-1.032-5.39-.656-1.688-1.562-3.141-2.718-4.36a12.512 12.512 0 0 0-4.078-2.86c-1.532-.687-3.172-1.03-4.922-1.03-1.75 0-3.407.39-4.969 1.171a13.217 13.217 0 0 0-4.031 3.047c-1.157 1.25-2.063 2.703-2.719 4.36a13.402 13.402 0 0 0-.985 5.062c0 1.938.329 3.734.985 5.39.656 1.657 1.562 3.094 2.719 4.313a13.289 13.289 0 0 0 4.031 2.906 12.201 12.201 0 0 0 4.969 1.032c1.75 0 3.39-.344 4.922-1.031a13.134 13.134 0 0 0 4.078-2.907c1.156-1.219 2.062-2.656 2.718-4.312.688-1.656 1.032-3.453 1.032-5.39Zm35.109-38.297a7.944 7.944 0 0 1-.703 3.328 8.515 8.515 0 0 1-1.828 2.72 9.475 9.475 0 0 1-2.766 1.827 8.427 8.427 0 0 1-3.328.657 8.775 8.775 0 0 1-3.375-.657 9.678 9.678 0 0 1-2.719-1.828 9.668 9.668 0 0 1-1.828-2.719 8.441 8.441 0 0 1-.656-3.328c0-1.156.219-2.25.656-3.281.469-1.063 1.078-1.969 1.828-2.719a8.516 8.516 0 0 1 2.719-1.828 8.27 8.27 0 0 1 3.375-.703c1.188 0 2.297.234 3.328.703a8.378 8.378 0 0 1 2.766 1.828 7.879 7.879 0 0 1 1.828 2.719 7.833 7.833 0 0 1 .703 3.281ZM450.922 103h-12.891V52.797h12.891V103Zm22.687 0h-12.89V32.828h12.89V103Zm29.766-12.281c.5.156 1 .265 1.5.328.5.031 1 .047 1.5.047 1.25 0 2.453-.172 3.609-.516a13.122 13.122 0 0 0 3.235-1.453 12.268 12.268 0 0 0 2.719-2.344 12.382 12.382 0 0 0 1.968-3.094l9.375 9.422a24.754 24.754 0 0 1-4.125 4.547 24.943 24.943 0 0 1-5.015 3.422 23.774 23.774 0 0 1-5.672 2.11c-1.969.5-4 .75-6.094.75-3.531 0-6.859-.657-9.984-1.969a25.521 25.521 0 0 1-8.157-5.485c-2.312-2.343-4.14-5.125-5.484-8.343-1.344-3.25-2.016-6.813-2.016-10.688 0-3.969.672-7.594 2.016-10.875 1.344-3.281 3.172-6.078 5.484-8.39a25.252 25.252 0 0 1 8.157-5.391c3.125-1.281 6.453-1.922 9.984-1.922 2.094 0 4.141.25 6.141.75s3.89 1.219 5.672 2.156c1.812.938 3.5 2.094 5.062 3.469a24.794 24.794 0 0 1 4.125 4.547l-24 28.922Zm6.563-26.39a7.386 7.386 0 0 0-1.782-.423 16.159 16.159 0 0 0-1.781-.093c-1.75 0-3.406.328-4.969.984a11.783 11.783 0 0 0-4.031 2.719c-1.125 1.187-2.016 2.625-2.672 4.312-.656 1.656-.984 3.531-.984 5.625 0 .469.015 1 .047 1.594.062.594.14 1.203.234 1.828.125.594.266 1.172.422 1.734a6.53 6.53 0 0 0 .609 1.5l14.907-19.78Zm-248.25 75.905v26.907h13.453c1.843 0 3.578-.344 5.203-1.032a13.923 13.923 0 0 0 4.265-2.906 13.311 13.311 0 0 0 2.86-4.265 13.048 13.048 0 0 0 1.078-5.25c0-1.844-.359-3.579-1.078-5.204a13.173 13.173 0 0 0-2.86-4.312 13.29 13.29 0 0 0-4.265-2.86 12.733 12.733 0 0 0-5.203-1.078h-13.453Zm0 53.766h-13.454v-67.219h26.907c2.468 0 4.843.328 7.125.985a25.16 25.16 0 0 1 6.375 2.718c2 1.157 3.812 2.563 5.437 4.219a25.385 25.385 0 0 1 4.219 5.438c1.187 2 2.094 4.14 2.719 6.421.656 2.282.984 4.657.984 7.126 0 2.312-.297 4.562-.891 6.75a26.218 26.218 0 0 1-2.484 6.234 25.666 25.666 0 0 1-3.937 5.437 26.83 26.83 0 0 1-5.25 4.313L296.891 194h-14.297l-5.86-13.547-15.046.094V194Zm67.218-12.281c.5.156 1 .265 1.5.328.5.031 1 .047 1.5.047 1.25 0 2.453-.172 3.61-.516a13.143 13.143 0 0 0 3.234-1.453 12.223 12.223 0 0 0 2.719-2.344 12.392 12.392 0 0 0 1.969-3.093l9.374 9.421a24.78 24.78 0 0 1-4.124 4.547 24.97 24.97 0 0 1-5.016 3.422 23.758 23.758 0 0 1-5.672 2.11c-1.969.5-4 .75-6.094.75-3.531 0-6.859-.657-9.984-1.969a25.502 25.502 0 0 1-8.156-5.485c-2.313-2.343-4.141-5.125-5.485-8.343-1.343-3.25-2.015-6.813-2.015-10.688 0-3.969.672-7.594 2.015-10.875 1.344-3.281 3.172-6.078 5.485-8.39a25.227 25.227 0 0 1 8.156-5.391c3.125-1.281 6.453-1.922 9.984-1.922 2.094 0 4.141.25 6.141.75s3.891 1.219 5.672 2.156c1.812.938 3.5 2.094 5.062 3.469a24.749 24.749 0 0 1 4.125 4.547l-24 28.922Zm6.563-26.391a7.394 7.394 0 0 0-1.781-.422 16.287 16.287 0 0 0-1.782-.094 12.7 12.7 0 0 0-4.968.985 11.771 11.771 0 0 0-4.032 2.719c-1.125 1.187-2.015 2.625-2.672 4.312-.656 1.656-.984 3.531-.984 5.625 0 .469.016 1 .047 1.594.062.594.141 1.203.234 1.828.125.594.266 1.172.422 1.734.156.563.359 1.063.609 1.5l14.907-19.781ZM407.609 194h-3.093l-4.969-6.891a42.294 42.294 0 0 1-3.891 3.094 30.382 30.382 0 0 1-4.265 2.485 27.316 27.316 0 0 1-4.641 1.64 18.93 18.93 0 0 1-4.781.61c-3.531 0-6.86-.594-9.985-1.782-3.093-1.187-5.812-2.906-8.156-5.156-2.312-2.281-4.14-5.062-5.484-8.344-1.344-3.281-2.016-7.015-2.016-11.203 0-3.906.672-7.484 2.016-10.734 1.344-3.281 3.172-6.094 5.484-8.438a24.897 24.897 0 0 1 8.156-5.437c3.125-1.313 6.454-1.969 9.985-1.969 1.625 0 3.234.203 4.828.609 1.594.407 3.141.969 4.641 1.688s2.921 1.562 4.265 2.531a34.394 34.394 0 0 1 3.844 3.141l4.969-5.953h3.093V194Zm-12.89-25.547c0-1.75-.344-3.437-1.031-5.062-.657-1.657-1.563-3.11-2.719-4.36a13.06 13.06 0 0 0-4.078-3.047 10.683 10.683 0 0 0-4.922-1.172c-1.75 0-3.407.297-4.969.891a11.544 11.544 0 0 0-4.031 2.625c-1.125 1.156-2.016 2.594-2.672 4.313-.656 1.687-.985 3.625-.985 5.812 0 2.188.329 4.141.985 5.859.656 1.688 1.547 3.11 2.672 4.266a11.544 11.544 0 0 0 4.031 2.625c1.562.594 3.219.891 4.969.891 1.75 0 3.39-.375 4.922-1.125a14.09 14.09 0 0 0 4.078-3.047 14.637 14.637 0 0 0 2.719-4.36 13.214 13.214 0 0 0 1.031-5.109Zm66.562-14.672-9.375 9.422a12.307 12.307 0 0 0-1.922-3.515 12.384 12.384 0 0 0-2.765-2.672c-1-.719-2.094-1.266-3.281-1.641a12.078 12.078 0 0 0-3.657-.563c-1.75 0-3.406.36-4.969 1.079a12.286 12.286 0 0 0-4.031 3.047c-1.125 1.281-2.015 2.812-2.672 4.593-.656 1.781-.984 3.75-.984 5.907 0 1.75.328 3.39.984 4.921a13.169 13.169 0 0 0 2.672 4.032 12.75 12.75 0 0 0 4.031 2.718 12.69 12.69 0 0 0 4.969.985c1.25 0 2.453-.172 3.61-.516a13.143 13.143 0 0 0 3.234-1.453 12.246 12.246 0 0 0 2.719-2.344 12.388 12.388 0 0 0 1.968-3.093l9.376 9.421a24.79 24.79 0 0 1-4.126 4.547 24.936 24.936 0 0 1-5.015 3.422 23.758 23.758 0 0 1-5.672 2.11c-1.969.5-4 .75-6.094.75-3.531 0-6.859-.657-9.984-1.969-3.094-1.344-5.813-3.172-8.156-5.485-2.313-2.312-4.141-5.015-5.485-8.109-1.344-3.094-2.015-6.406-2.015-9.937 0-3.844.671-7.438 2.015-10.782 1.344-3.344 3.172-6.25 5.485-8.718a26.235 26.235 0 0 1 8.156-5.907c3.125-1.437 6.453-2.156 9.984-2.156 2.094 0 4.141.266 6.141.797a23.745 23.745 0 0 1 5.766 2.344c1.843 1 3.531 2.234 5.062 3.703a22.843 22.843 0 0 1 4.031 5.062ZM492.734 194c-3.093 0-6-.578-8.718-1.734-2.719-1.188-5.11-2.797-7.172-4.828-2.032-2.063-3.641-4.454-4.828-7.172-1.157-2.719-1.735-5.625-1.735-8.719v-14.906h-6.234v-12.75h6.234v-20.063h12.75v20.063h19.407v12.75h-19.407v14.906c0 1.344.25 2.609.75 3.797a9.73 9.73 0 0 0 2.063 3.047 10.233 10.233 0 0 0 3.094 2.109 9.68 9.68 0 0 0 3.796.75h9.704V194h-9.704Z"/></svg>