<svg xmlns="http://www.w3.org/2000/svg" width="230" height="230" fill="none"><circle cx="115" cy="115" r="103" stroke="#112D4E" stroke-width="24"/><path fill="#112D4E" d="M123.938 132h-13.407V84c0-.938-.187-1.813-.562-2.625a6.219 6.219 0 0 0-1.453-2.11 6.214 6.214 0 0 0-2.11-1.453 6.664 6.664 0 0 0-2.625-.515c-.937 0-1.812.172-2.625.516A6.734 6.734 0 0 0 99 79.266 6.666 6.666 0 0 0 97.078 84v48H83.625V84c0-.938-.172-1.813-.516-2.625a6.216 6.216 0 0 0-1.453-2.11 6.213 6.213 0 0 0-2.11-1.453 6.668 6.668 0 0 0-2.624-.515c-.938 0-1.813.172-2.625.516a6.73 6.73 0 0 0-2.156 1.453A6.666 6.666 0 0 0 70.219 84v48H56.766V84c0-2.781.515-5.39 1.547-7.828 1.062-2.469 2.5-4.61 4.312-6.422a20.025 20.025 0 0 1 6.422-4.313c2.469-1.062 5.094-1.593 7.875-1.593 2.5 0 4.906.453 7.219 1.36a19.247 19.247 0 0 1 6.234 3.843 19.375 19.375 0 0 1 6.188-3.844 19.611 19.611 0 0 1 7.218-1.36c2.781 0 5.391.532 7.828 1.594 2.469 1.032 4.61 2.47 6.422 4.313 1.844 1.813 3.281 3.953 4.313 6.422 1.062 2.437 1.594 5.047 1.594 7.828v48ZM137.459 107.54v26.906h13.453c1.844 0 3.578-.344 5.203-1.031a13.975 13.975 0 0 0 4.266-2.906 13.318 13.318 0 0 0 2.859-4.266 13.04 13.04 0 0 0 1.078-5.25c0-1.844-.359-3.578-1.078-5.203a13.19 13.19 0 0 0-2.859-4.313 13.318 13.318 0 0 0-4.266-2.859c-1.625-.719-3.359-1.078-5.203-1.078h-13.453Zm0 53.766h-13.453v-67.22h26.906c2.469 0 4.844.329 7.125.985a25.143 25.143 0 0 1 6.375 2.719c2 1.156 3.812 2.562 5.437 4.219a25.348 25.348 0 0 1 4.219 5.437c1.188 2 2.094 4.141 2.719 6.422a25.65 25.65 0 0 1 .984 7.125c0 2.313-.297 4.563-.89 6.75a26.23 26.23 0 0 1-2.485 6.234 25.637 25.637 0 0 1-3.937 5.438 26.826 26.826 0 0 1-5.25 4.312l7.453 17.579h-14.297l-5.859-13.547-15.047.093v13.454Z"/></svg>